<svg width="11" height="11" viewBox="0 0 11 11" fill="none" xmlns="http://www.w3.org/2000/svg">
<path id="Vector" d="M6.62495 0.247536C6.73233 0.0645947 7.08028 0.152279 7.08602 0.364385C7.11443 1.35942 7.25653 2.87394 7.82097 3.82717C8.38631 4.77869 9.64833 5.63157 10.5078 6.13276C10.6907 6.24013 10.6014 6.58719 10.3892 6.59293C9.39422 6.62134 7.88139 6.76434 6.92816 7.32878C5.97494 7.89322 5.12376 9.15614 4.62257 10.0156C4.5152 10.1986 4.16644 10.1083 4.1624 9.89706C4.13399 8.90202 3.991 7.3892 3.42485 6.43508C2.86041 5.48185 1.59749 4.63067 0.739728 4.13038C0.556787 4.02301 0.645367 3.67335 0.856574 3.66931C1.85161 3.6409 3.36614 3.4988 4.32026 2.93266C5.27178 2.36732 6.12466 1.1053 6.62495 0.247536Z" fill="white"/>
</svg>
